<svg width="209" height="60" viewBox="0 0 209 60" fill="none" xmlns="http://www.w3.org/2000/svg">
<g clip-path="url(#clip0_1964_2)">
<g clip-path="url(#clip1_1964_2)">
<path fill-rule="evenodd" clip-rule="evenodd" d="M58.0459 30.0079C58.0459 45.6383 45.3749 58.3093 29.7445 58.3093C21.3597 58.3093 13.8265 54.663 8.64418 48.8695L7.25489 49.7271C12.7368 55.9742 20.7801 59.9179 29.7445 59.9179C46.2633 59.9179 59.6545 46.5267 59.6545 30.0079C59.6545 26.0207 58.8743 22.2157 57.4583 18.7373L56.0688 19.595C57.3447 22.8179 58.0459 26.331 58.0459 30.0079ZM3.40816 40.3904C2.13984 37.1758 1.44307 33.6732 1.44307 30.0079C1.44307 14.3774 14.114 1.70647 29.7445 1.70647C38.1175 1.70647 45.6413 5.34257 50.823 11.1219L52.2125 10.2641C46.7311 4.03126 38.6971 0.0979004 29.7445 0.0979004C13.2257 0.0979004 -0.165497 13.4891 -0.165497 30.0079C-0.165497 33.9835 0.610171 37.778 2.01843 41.2482L3.40816 40.3904Z" fill="#EA5425"/>
<path d="M11.6514 46.3769H16.5768L29.6589 20.2413L37.6347 36.0589C33.9652 34.4655 31.7248 34.186 27.5811 34.1822V38.7398C35.0817 38.7315 38.7295 40.2288 44.069 46.3805H47.7553L29.6589 10.1877L11.6514 46.3769Z" fill="#EA5425"/>
</g>
<path d="M73.2093 41.4597L80.4277 19.2494H85.0702L92.2886 41.4597H88.9416L82.2939 21.1928H83.1268L76.5563 41.4597H73.2093ZM76.9573 36.447V33.4239H88.556V36.447H76.9573ZM103.985 41.4597C102.936 41.6654 101.908 41.7528 100.9 41.7219C99.8927 41.6911 98.993 41.4957 98.2012 41.1358C97.4095 40.7759 96.8131 40.2104 96.4121 39.4392C96.0522 38.7503 95.8568 38.051 95.826 37.3416C95.8054 36.6218 95.7951 35.8095 95.7951 34.9046V20.1748H99.0341V34.7503C99.0341 35.4187 99.0393 35.9997 99.0495 36.4932C99.0701 36.9868 99.1781 37.4032 99.3734 37.7426C99.7436 38.3801 100.33 38.7451 101.132 38.8377C101.944 38.9199 102.895 38.8839 103.985 38.7297V41.4597ZM92.6024 27.3932V24.802H103.985V27.3932H92.6024ZM112.201 41.9224C110.968 41.9224 109.934 41.6962 109.101 41.2438C108.268 40.7811 107.636 40.1744 107.204 39.4238C106.783 38.6629 106.572 37.83 106.572 36.9251C106.572 36.0819 106.721 35.3416 107.019 34.7041C107.317 34.0666 107.759 33.5267 108.346 33.0846C108.932 32.6321 109.651 32.2671 110.505 31.9895C111.245 31.7735 112.083 31.5833 113.019 31.4188C113.955 31.2543 114.937 31.1 115.965 30.9561C117.003 30.8121 118.032 30.6682 119.05 30.5242L117.877 31.172C117.898 29.8661 117.62 28.8996 117.045 28.2723C116.479 27.6348 115.502 27.3161 114.114 27.3161C113.24 27.3161 112.438 27.5217 111.708 27.933C110.978 28.334 110.469 29.0024 110.181 29.9381L107.173 29.0127C107.585 27.5834 108.366 26.4472 109.518 25.604C110.68 24.7608 112.222 24.3393 114.145 24.3393C115.636 24.3393 116.931 24.5963 118.032 25.1104C119.142 25.6143 119.955 26.4163 120.469 27.5166C120.736 28.0615 120.901 28.6374 120.962 29.244C121.024 29.8507 121.055 30.5036 121.055 31.2029V41.4597H118.201V37.65L118.757 38.1436C118.068 39.4186 117.189 40.3698 116.119 40.997C115.06 41.614 113.754 41.9224 112.201 41.9224ZM112.772 39.285C113.687 39.285 114.474 39.1256 115.132 38.8068C115.79 38.4778 116.32 38.0613 116.721 37.5575C117.122 37.0536 117.384 36.5292 117.507 35.9843C117.682 35.4907 117.78 34.9354 117.8 34.3185C117.831 33.7015 117.847 33.208 117.847 32.8378L118.895 33.2234C117.877 33.3776 116.952 33.5164 116.119 33.6398C115.286 33.7632 114.53 33.8866 113.852 34.01C113.183 34.1231 112.587 34.2619 112.063 34.4264C111.621 34.5807 111.225 34.7658 110.875 34.9817C110.536 35.1976 110.263 35.4598 110.058 35.7683C109.862 36.0768 109.765 36.4521 109.765 36.8943C109.765 37.3261 109.872 37.7271 110.088 38.0973C110.304 38.4572 110.633 38.7451 111.076 38.9611C111.518 39.177 112.083 39.285 112.772 39.285ZM131.337 41.907C130.186 41.907 129.219 41.7219 128.438 41.3517C127.656 40.9816 127.019 40.4983 126.525 39.9019C126.042 39.2952 125.672 38.6372 125.415 37.9277C125.158 37.2182 124.983 36.5241 124.89 35.8454C124.798 35.1668 124.751 34.5704 124.751 34.0563V24.802H128.021V32.992C128.021 33.6398 128.073 34.3082 128.176 34.9971C128.289 35.6758 128.494 36.3082 128.792 36.8943C129.101 37.4804 129.528 37.9534 130.073 38.3133C130.628 38.6731 131.348 38.8531 132.232 38.8531C132.808 38.8531 133.353 38.7605 133.867 38.5755C134.381 38.3801 134.828 38.0716 135.209 37.65C135.6 37.2284 135.903 36.6732 136.119 35.9843C136.345 35.2953 136.458 34.4573 136.458 33.4702L138.463 34.2259C138.463 35.7375 138.18 37.0742 137.615 38.2361C137.049 39.3878 136.237 40.2875 135.178 40.9353C134.119 41.5831 132.839 41.907 131.337 41.907ZM136.844 41.4597V36.6475H136.458V24.802H139.713V41.4597H136.844ZM151.164 41.9224C149.457 41.9224 148.008 41.542 146.815 40.7811C145.622 40.0202 144.707 38.9765 144.069 37.65C143.442 36.3236 143.123 34.8172 143.113 33.1308C143.123 31.4137 143.452 29.897 144.1 28.5808C144.748 27.2544 145.673 26.2158 146.876 25.4652C148.08 24.7146 149.524 24.3393 151.211 24.3393C153.031 24.3393 154.583 24.7917 155.869 25.6966C157.164 26.6014 158.018 27.8405 158.429 29.4137L155.221 30.3391C154.902 29.4034 154.378 28.6785 153.648 28.1644C152.928 27.64 152.1 27.3778 151.164 27.3778C150.105 27.3778 149.236 27.6297 148.558 28.1335C147.879 28.6271 147.375 29.3057 147.046 30.1695C146.717 31.0332 146.547 32.0203 146.537 33.1308C146.547 34.848 146.938 36.2362 147.709 37.2953C148.491 38.3544 149.642 38.8839 151.164 38.8839C152.203 38.8839 153.041 38.6474 153.678 38.1744C154.326 37.6912 154.82 37.0022 155.159 36.1076L158.429 36.8788C157.884 38.5035 156.984 39.7528 155.73 40.6268C154.475 41.4906 152.953 41.9224 151.164 41.9224ZM171.103 41.4597C170.054 41.6654 169.026 41.7528 168.018 41.7219C167.011 41.6911 166.111 41.4957 165.319 41.1358C164.527 40.7759 163.931 40.2104 163.53 39.4392C163.17 38.7503 162.975 38.051 162.944 37.3416C162.923 36.6218 162.913 35.8095 162.913 34.9046V20.1748H166.152V34.7503C166.152 35.4187 166.157 35.9997 166.167 36.4932C166.188 36.9868 166.296 37.4032 166.491 37.7426C166.861 38.3801 167.448 38.7451 168.25 38.8377C169.062 38.9199 170.013 38.8839 171.103 38.7297V41.4597ZM159.72 27.3932V24.802H171.103V27.3932H159.72ZM180.893 41.907C179.741 41.907 178.774 41.7219 177.993 41.3517C177.211 40.9816 176.574 40.4983 176.08 39.9019C175.597 39.2952 175.227 38.6372 174.97 37.9277C174.713 37.2182 174.538 36.5241 174.445 35.8454C174.353 35.1668 174.307 34.5704 174.307 34.0563V24.802H177.576V32.992C177.576 33.6398 177.628 34.3082 177.731 34.9971C177.844 35.6758 178.049 36.3082 178.348 36.8943C178.656 37.4804 179.083 37.9534 179.628 38.3133C180.183 38.6731 180.903 38.8531 181.787 38.8531C182.363 38.8531 182.908 38.7605 183.422 38.5755C183.936 38.3801 184.383 38.0716 184.764 37.65C185.155 37.2284 185.458 36.6732 185.674 35.9843C185.9 35.2953 186.013 34.4573 186.013 33.4702L188.018 34.2259C188.018 35.7375 187.736 37.0742 187.17 38.2361C186.604 39.3878 185.792 40.2875 184.733 40.9353C183.674 41.5831 182.394 41.907 180.893 41.907ZM186.399 41.4597V36.6475H186.013V24.802H189.268V41.4597H186.399ZM199.964 41.907C197.938 41.907 196.288 41.4597 195.013 40.5651C193.738 39.6706 192.956 38.4109 192.668 36.7863L195.969 36.2773C196.174 37.141 196.647 37.8248 197.388 38.3287C198.138 38.8222 199.069 39.069 200.18 39.069C201.187 39.069 201.974 38.8634 202.539 38.4521C203.115 38.0408 203.403 37.4752 203.403 36.7554C203.403 36.3339 203.3 35.9945 203.095 35.7375C202.899 35.4701 202.483 35.2182 201.845 34.9817C201.208 34.7452 200.236 34.4522 198.93 34.1025C197.501 33.7324 196.365 33.3365 195.522 32.9149C194.689 32.483 194.092 31.9843 193.732 31.4188C193.383 30.843 193.208 30.1489 193.208 29.3366C193.208 28.3289 193.475 27.4497 194.01 26.6991C194.545 25.9485 195.295 25.3675 196.262 24.9562C197.239 24.5449 198.38 24.3393 199.686 24.3393C200.961 24.3393 202.097 24.5398 203.095 24.9408C204.092 25.3418 204.899 25.9125 205.516 26.6528C206.133 27.3829 206.503 28.2415 206.627 29.2286L203.326 29.8301C203.213 29.0281 202.838 28.3957 202.2 27.933C201.563 27.4703 200.735 27.2184 199.717 27.1772C198.74 27.1361 197.948 27.3006 197.342 27.6708C196.735 28.0307 196.432 28.5294 196.432 29.1669C196.432 29.5371 196.545 29.8507 196.771 30.1078C197.007 30.3648 197.46 30.6116 198.128 30.8481C198.797 31.0846 199.784 31.3674 201.09 31.6964C202.488 32.0563 203.599 32.4573 204.421 32.8995C205.244 33.3314 205.83 33.8506 206.179 34.4573C206.539 35.0537 206.719 35.7786 206.719 36.6321C206.719 38.2773 206.118 39.5677 204.915 40.5034C203.722 41.4392 202.072 41.907 199.964 41.907Z" fill="#181F34"/>
</g>
<defs>
<clipPath id="clip0_1964_2">
<rect width="208.75" height="60" fill="white" transform="translate(0.125)"/>
</clipPath>
<clipPath id="clip1_1964_2">
<rect width="59.9192" height="59.9192" fill="white" transform="translate(-0.166656)"/>
</clipPath>
</defs>
</svg>
